<svg width="120" height="120" viewBox="0 0 120 120" fill="none" xmlns="http://www.w3.org/2000/svg">
<rect width="120" height="120" fill="#20202D"/>
<path d="M28.4 33H25V68H27.2V39.45H27.4L42.85 68.6H43.75L59.55 39.65H59.75V68H64.3V33H60.85L44.65 63.05H44.45L28.4 33Z" fill="white"/>
<path d="M79.25 50H75V85H79.25V75.6L82.15 72.65L92.2 85H97.8L85.25 69.6L94.8 60H91.55L79.25 72.4V50Z" fill="#FFFAFA"/>
<path d="M60 119.5C92.8609 119.5 119.5 92.8609 119.5 60C119.5 27.1391 92.8609 0.5 60 0.5C27.1391 0.5 0.5 27.1391 0.5 60C0.5 92.8609 27.1391 119.5 60 119.5Z" stroke="#FFFEFE"/>
</svg>
